<svg width="15" height="16" viewBox="0 0 15 16" fill="none" xmlns="http://www.w3.org/2000/svg">
<path d="M14.9819 13.411L14.138 6.06932C13.9344 4.83328 12.8289 3.93734 11.5556 3.97881H10.9311V2.97504C10.8436 1.30762 9.4437 0 7.74527 0C6.04684 0 4.64693 1.30762 4.55943 2.97504V3.97881H3.5889C2.32407 3.93629 1.22065 4.81772 1.0065 6.04442L0.0191227 13.3778C-0.0663255 14.0114 0.137272 14.6492 0.576112 15.1199C1.09089 15.6861 1.82933 16.0065 2.60153 15.9993H12.391C13.1548 16.0169 13.8911 15.7151 14.4164 15.1697C14.8584 14.6937 15.0653 14.0508 14.9819 13.411ZM5.37823 2.97509C5.45313 1.75771 6.47849 0.806794 7.72013 0.806794C8.96176 0.806794 9.98711 1.75768 10.062 2.97509V3.97886H5.37818L5.37823 2.97509ZM13.8175 14.5891C13.4599 14.9717 12.9535 15.1853 12.425 15.1781H2.60174C2.07114 15.1864 1.5637 14.9686 1.20928 14.5808C0.935015 14.2873 0.805254 13.8902 0.854836 13.494L1.84221 6.16064C2.0015 5.34663 2.74733 4.77318 3.58915 4.81674H4.53434V6.2685C4.53434 6.49767 4.72317 6.68329 4.9563 6.68329C5.18943 6.68329 5.37826 6.49767 5.37826 6.2685V4.80846H10.0621V6.26022C10.0621 6.37014 10.1064 6.47591 10.1855 6.55369C10.2646 6.63147 10.3722 6.67501 10.4841 6.67501C10.5959 6.67501 10.7035 6.63146 10.7826 6.55369C10.8617 6.47591 10.906 6.37014 10.906 6.26022V4.80846H11.5305C12.3776 4.76594 13.1255 5.34873 13.2775 6.16895L14.1214 13.5024C14.1794 13.8881 14.0687 14.279 13.8176 14.5808L13.8175 14.5891Z" fill="#004D43"/>
</svg>
