<svg width="16" height="17" viewBox="0 0 16 17" fill="none" xmlns="http://www.w3.org/2000/svg">
<path d="M15.8586 15.5621L12.607 12.3345C15.0319 9.52069 14.8941 5.27241 12.2212 2.59655C10.8434 1.18966 8.9971 0.5 7.17839 0.5C5.35968 0.5 3.51342 1.18966 2.10805 2.59655C-0.702683 5.41034 -0.702683 9.93448 2.10805 12.7483C3.48586 14.1276 5.33213 14.8448 7.17839 14.8448C8.83177 14.8448 10.5127 14.2655 11.8354 13.1069L15.087 16.3621C15.1697 16.4448 15.3075 16.5 15.4453 16.5C15.583 16.5 15.7208 16.4448 15.831 16.3345C16.0515 16.1414 16.0515 15.7828 15.8586 15.5621ZM2.87962 11.9483C1.72226 10.8172 1.11603 9.27241 1.11603 7.67241C1.11603 6.07241 1.74982 4.52759 2.87962 3.36897C4.03699 2.21035 5.55258 1.60345 7.17839 1.60345C8.80421 1.60345 10.3198 2.23793 11.4772 3.36897C12.607 4.52759 13.2408 6.04483 13.2408 7.67241C13.2408 9.3 12.607 10.8172 11.4772 11.9759C10.3198 13.1069 8.77665 13.7414 7.17839 13.7414C5.58013 13.7414 4.03699 13.1069 2.87962 11.9483Z" fill="#004D43"/>
</svg>
