<svg width="16" height="16" viewBox="0 0 16 16" fill="none" xmlns="http://www.w3.org/2000/svg">
<path d="M7.99838 9.29533C6.7415 9.29533 5.56002 8.81179 4.67127 7.93397C3.78252 7.05614 3.29297 5.88918 3.29297 4.64776C3.29297 3.40615 3.78233 2.23919 4.67127 1.36136C5.56002 0.483534 6.7415 0 7.99838 0C9.25525 0 10.4369 0.483534 11.3257 1.36136C13.1602 3.17328 13.1602 6.12185 11.3257 7.93378C10.4369 8.81179 9.25525 9.29533 7.99838 9.29533ZM7.99838 0.758079C6.94657 0.758079 5.95749 1.16279 5.21377 1.89738C4.47004 2.63215 4.06029 3.60888 4.06029 4.64795C4.06029 5.68664 4.46985 6.66356 5.21377 7.39833C5.95749 8.13291 6.94657 8.53763 7.99838 8.53763C9.05018 8.53763 10.0393 8.13291 10.7832 7.39833C12.3186 5.88179 12.3186 3.41429 10.7832 1.89757C10.0393 1.16279 9.05038 0.758079 7.99838 0.758079Z" fill="#004D43"/>
<path d="M15.6161 16C15.615 16 15.6137 16 15.6123 16H0.383661C0.17188 16 0 15.8302 0 15.6211C0 13.5109 0.831969 11.5271 2.34263 10.0352C2.80207 9.58125 3.33536 9.3607 3.97319 9.3607C4.63405 9.3607 5.32099 9.60455 5.9853 9.84045C6.65268 10.0773 7.34288 10.3223 7.99818 10.3223C8.65328 10.3223 9.34368 10.0773 10.0111 9.84045C10.6754 9.60455 11.3623 9.3607 12.0232 9.3607C12.6608 9.3607 13.1941 9.58125 13.6535 10.0352C15.1511 11.5142 15.9816 13.4766 15.996 15.5659C15.9987 15.5839 16 15.6023 16 15.6211C15.9998 15.8302 15.8283 16 15.6161 16ZM0.777297 15.2421H15.2189C15.1262 13.4768 14.3859 11.8303 13.111 10.5711C12.7985 10.2624 12.4529 10.1186 12.0232 10.1186C11.496 10.1186 10.9006 10.3299 10.2704 10.5536C9.54107 10.8124 8.78698 11.0802 7.99799 11.0802C7.20899 11.0802 6.4549 10.8124 5.72556 10.5536C5.0954 10.3299 4.50015 10.1186 3.973 10.1186C3.5433 10.1186 3.19762 10.2624 2.88513 10.5711C1.61022 11.8301 0.869951 13.4766 0.777297 15.2421Z" fill="#004D43"/>
</svg>
