<svg width="18" height="16" viewBox="0 0 18 16" fill="none" xmlns="http://www.w3.org/2000/svg">
<path d="M7.64184 15.4112C8.01562 15.8038 8.50745 16 9.00098 16C9.49451 16 9.9838 15.8037 10.3601 15.4112L16.5356 8.92567C17.5031 7.90956 18.023 6.55988 17.9992 5.1236C17.9755 3.68732 17.4122 2.35541 16.4116 1.37314C14.4655 -0.538651 11.3097 -0.442297 9.37625 1.58814C9.16729 1.8076 8.83006 1.80492 8.62364 1.58814C6.69028 -0.442295 3.53547 -0.537758 1.58832 1.37314C0.587648 2.35536 0.0244661 3.68915 0.000675813 5.1236C-0.0214096 6.55991 0.498467 7.90961 1.4643 8.92567L7.63978 15.4112H7.64184ZM2.18312 2.04024C2.95274 1.28462 3.95339 0.909941 4.9625 0.909941C6.06255 0.909941 7.17452 1.35332 8.00957 2.23206C8.55747 2.80568 9.44686 2.80568 9.99306 2.23206C11.5977 0.546863 14.2114 0.459439 15.8186 2.04025C16.6452 2.85297 17.1107 3.95383 17.1302 5.13937C17.1497 6.32677 16.7191 7.44099 15.9214 8.28234L9.74594 14.7679C9.54801 14.9757 9.28298 15.0926 9.00181 15.0926C8.72148 15.0926 8.45815 14.9784 8.25767 14.7679L2.0822 8.28234C1.2837 7.44375 0.853887 6.32773 0.873415 5.13937C0.892952 3.95376 1.35846 2.85283 2.18497 2.04025L2.18312 2.04024Z" fill="#004D43"/>
</svg>
